/* XPM */
static char *xpm_[] = {
/* columns rows colors chars-per-pixel */
"50 50 20 1 ",
"  c #00B300",
". c #02B300",
"X c #00B400",
"o c #01B400",
"O c #00B500",
"+ c #01B500",
"@ c #01B401",
"# c #00B501",
"$ c #02B400",
"% c #03B401",
"& c #02B501",
"* c #00B601",
"= c #02B502",
"- c #FDFF00",
"; c #FEFE00",
": c #FFFE00",
"> c #FEFF00",
", c yellow",
"< c #FFFF01",
"1 c #FFFF02",
/* pixels */
"oooooooooooooooooooooooooooooooooooooooooooooooooo",
"oooooooooooooooooooooooooooooooooooooooooooooooooo",
"oooooooooooooooooooooooooooooooooooooooooooooooooo",
"oooooooooooooooooooooooooooooooooooooooooooooooooo",
"oooooooooooooooooooooooooooooooooooooooooooooooooo",
"oooooooooooooooooooooooooooooooooooooooooooooooooo",
"oooooooooooooooooooooooooooooooooooooooooooooooooo",
"oooooooooooooooooooo,,,,,,,,,,,,oooooooooooooooooo",
"oooooooooooooooo@ ,,,,,,,,,,,,,,,,   ooooooooooooo",
"oooooooooooooooo,,,,,,,,,,,,,,,,-,, oooooooooooooo",
"oooooooo ooooo ,,,,,,,,,,,,,,,,,,,,,oooooooooooooo",
"ooooooooooo oo ,,,,,,,,,,,,,,,,,,,,,,ooooooooooooo",
"ooooooooooooo,,,,,,,,,,,,,,,,,,,1,,,,,oooooooooooo",
"oooooooooooo,,,,,,,,,,,,,,,,,,,,,,,,,,,ooooooooooo",
"ooooooooooo,,,,,,,,,,,,,,,,,,,,,,,,,,,,,oooooooooo",
"ooooooooooo,,,,,,,,,,,,,,,,,,,,,,,,,,,,,oooooooooo",
"oooooooo  ,,,,,,,,,,,,,,,,,,,,,,,,,,,,,,,o ooooooo",
"oooooooo  ,,,,,,,,,,,,,,,,,,,,,,,,,,,,,,,ooooooooo",
"ooooooooo,,,,,,,,,,,,,,,,,,,,,,,,,,,,,,,,ooooooooo",
"oooooooo ,,,,,,,,,,,,,,,,,,,,,,,,,,,,,,,,ooooooooo",
"ooooooooo,,,,,,,,,,,  ooo ooo ,,,,,,,,,,, oooooooo",
"ooooooooo,,,,,,,,,,,o oooooooo,,,,,,,,,,,,oooooooo",
"oooooooo 1,,,,,,,,,,oooooooo=o,,,,,,,,,,,,o=oooooo",
"ooooooooo,,,,,,,,,,,oooooooo o,,,,,,,,,,,,oooo=ooo",
"ooooooooo,,,,,,,,,,,oooooooooo,,,,,,,,,,,,oooooooo",
"ooooooooo,,,,,,,,,,,oooooooo=o,,,,,,,,,,,,oo=ooooo",
"ooooooooo,,,,,,,,,1,oooooooo  ,,,,,,,,,,,,oooooooo",
"ooooooooo,,,,,,,,,,,oooooo= o ,,,,,,,,,,,,oooooooo",
"oooooooooo,,,,,,,,,,ooooo   oo,,,,,,,,,,,,oooooooo",
"oooooooooo,,,,,,,,,,,,,,,,,,,,,1,,,,,,,,,oo oooooo",
"oooooooooo,,,,,,,,,,,,,,,,,,,,,,,,,,,,,,,o ooooooo",
"oooooooooo,,,,,,,,,,,,,,,,,,,,,,,,,,,,,,oooooooooo",
"oooooooooo=1,,,,,,,,,,;,,,,,,,,,,;,,,,,,oooooooooo",
"ooooooooooo,,,,,,,,,,,,;,,,,,,,,,1;,,,,,oooooooooo",
"oooooooooooo,,,,,,,,,,,,,,,,,,,,,,,,,,,=oooooooooo",
"ooooooooooooo,,,,,,,,,,,,,,,,,,,,,,;,,oooooooooooo",
"oooooooooo=oo ,,,,,,,,,,,,,,,,,,,,,,, oooooooooooo",
"ooooooooooooooo,,,,,,,,,,,,,,,,,;,,,, oooooooooooo",
"oooooooo=ooooooo,,,,,,,,,,,,,,,,,,,, ooooooooooooo",
"oooooooooooooooo ,,,,,,,,,,,,,,,,,,  ooooooooooooo",
"oooooooooooooooo oo,,,,,,,,,,,,,,ooooooooooooooooo",
"oooooooooooooooooooooo,,,,,,,,o=oooooooooooooooooo",
"oooooooooooooooooooooooooooo o ooooooooooooooooooo",
"oooooooooooooooooooooooooooooooooooooo=ooooooooooo",
"ooooooooooooooooo=oooo=ooooooooooooooooooooooooooo",
"oooooooooooooooooooooooooooooooooooooooooooooooooo",
"oooooooooooooooooooooooooooooo oooo=oooooooooooooo",
"ooooooooooooooooooooooooo=oooooooooooooooooooooooo",
"oooooooooooooooooooooooooooooooooooooooooooooooooo",
"oooooooooooooooooooooooooooooooooooooooooooooooooo"
};
