/* XPM */
static char *xpm_[] = {
/* columns rows colors chars-per-pixel */
"50 50 13 1 ",
"  c black",
". c #010100",
"X c #010101",
"o c #000002",
"O c #5E5F59",
"+ c #5E5F5A",
"@ c #5F5F5D",
"# c #5F605A",
"$ c #5F605B",
"% c #60615C",
"& c #FFFFFD",
"* c #FEFEFE",
"= c white",
/* pixels */
"                                                  ",
"                                                  ",
"                                                  ",
"                                                  ",
"                                                  ",
"                                                  ",
"                                                  ",
"                                                  ",
"                                                  ",
"                                       o          ",
"                                                  ",
"                    $$$+%%$$$$                    ",
"                 $$$==========$+$                 ",
"              $$+================@$$ o            ",
"             $$====================$%             ",
"           %%========================%%           ",
"o         ++==========================++          ",
"          +===========================&+          ",
"         %==============================$    o    ",
"        $$==============================$$     o  ",
"        $======&=========================+        ",
"       $$================================$$       ",
"      $$==================================$$      ",
"      $====================================$  o   ",
"      %====================================$      ",
"      $====================================$      ",
"      $====================================$      ",
"      $====================================$      ",
"      $====================================$      ",
"      $====================================$      ",
"      $====================================$      ",
"      $====================================$      ",
"      $====================================$      ",
"      $====================================$      ",
"      $====================================$      ",
"      $====================================$      ",
"      $====================================$      ",
"      $====================================$      ",
"      $====================================$      ",
"      $====================================$      ",
"      $====================================$      ",
"      $====================================$      ",
"      $====================================$      ",
"      $====================================$      ",
"      $====================================$      ",
"      $====================================$      ",
"      $====================================$      ",
"      $====================================$      ",
"      $====================================$      ",
"      $====================================$      "
};
