/* XPM */
static char *xpm_[] = {
/* columns rows colors chars-per-pixel */
"50 50 17 1 ",
"  c #FD0000",
". c #FD0100",
"X c #FD0001",
"o c #FE0000",
"O c #FF0101",
"+ c #FE0002",
"@ c #00B300",
"# c #02B300",
"$ c #02B301",
"% c #01B400",
"& c #00B500",
"* c #01B500",
"= c #01B401",
"- c #02B400",
"; c #03B401",
": c #02B501",
"> c #02B502",
/* pixels */
"%%%%%%%%%%%%%%>%%>%%%%%%%%%%%%%%%%%@%%%%%%%%%%%%%%",
"%%%%%%%%%%%%%%%%%>%>%%%%%%%%%%@@%%%%%%%%%%%%%%%%%%",
"%%%%%%%%%%%%%%%%%%%%%%%%%%%%%%%%%%%%%%%%%%%%%%%%%%",
"%%%%%%%%%%%%%%%%%>%%%@%@%%%%%%%%%%%%%%%%%%%%%%%%%%",
"%%%%%%%%%%%%%%%%%%@%OOO..OO.OO@%@%@%%%%%%%%%%%%%%%",
"%%%%%%%%%%%%%@%%%O.O.O.OO..OOOOOO@%%%%%%%%%%%%%%%%",
"%%%%%%%%%%%%%%@OO.O.O.O..OO.O.OOO.O%%%%%%%%%%%%%%%",
"%%%%%%%%%%%%%%O.OO.O.O.OO..O..O..OOO%%%%%%%%%%%%%%",
"%%%%%%%%%%%%.O.O.O.O.O.O.O.O.O.O.O.O.%%%%%%%%%%%%%",
"@%%%%%%%%>%OO.O.O.O.O.O.O.O.O.O..OO.OO%%%>%%%%%%%%",
"%%%%%%%%%%OOO.O..O.O.O.O.O.O.O.OO.O..O.%%%%%%%%%%%",
"%%%%%%%%%O.O.O.OO.O.O.O.O.O.O.O..O.OO.O.%%%%%%%%%%",
"%%%%%%%%%O.O.OO..O.O.O.O.O.O.O.OO.O..OO.O%%%%%%%%%",
"%%%%%%%%OOO....OO.O.O.O.O.O.O.O..O.OO.OOOO%@%%%%%%",
"%%%%%%%O.O.OO.O..O.O.O.O.O.O.O.O.O.O.OO.OO@%%%%%%%",
"%%%%%%OOO.O..O.OO.O.O.O.O.O.O.O.O.O.O...OOO%%%%%%%",
"%%%%%@O..O.O.O.O.O.O.O.O.O.O.O.OO.O.O.O.O.O@%%%%%%",
"%%%%%O..O.O.O.O.O.O.O.O.O.O.O.O..O.OOOO..OOO%%%%%%",
"%%%%%O.O.O.O.O.O.O.O.O.O.O.O.O.OO.O...O.OOO.>%%%%%",
"%%%@OOO.O.O.O.O.O.O.O.O.O.O.O.O..O.OO..O.O%@%%%%%%",
"%%%%.O.O.O.O.O.O.O.O.O.O.O.O.O.OO.O.OOO%%%%%%%%%%%",
"%%%OO.O.O.O.O.O.O.O.O.O.O.O.O.O.OOO.%%%%%%%%%%%%%%",
"%%%O.O.O.O.O.O.O.O.O.O.O.O.O.O.OO%%%%%%%%%%%%%%%%%",
"%%%OO.O.O.O.O.O.O.O.O.O.O.O.O.O.%%%%%@%%%@%%%%%%%%",
"%%%OOO.O.O.O.O.O.O.O.O.O...O.O@%%%%%%%%%%%%%%%%%%%",
"%%%OO.O.O.O.O.O.O.O.O.O..OO.@%%%%%%%%%%%%%%%%%%%%%",
"%%%O.O.O.O.O.O.O.O.O.O.OO.O.%%%%%%%%%%%%%%%%%%%%%%",
"%%%O..O.O.O.O.O.O.O.O.O..O.OO%%%@%%@%%%%%%%%%%%%%%",
"%%@OOO...O.O.O.O.O.O.O.O.O.OOO.@%%%%%%%%%%%%%%%%%%",
"%%%OO..OO.O.O.O.O.O.O.O.O.O.OOOOO@%%%%%%%%%%%%%%%%",
"%%%OO.O..O.O.O.O.O.O.O.O.O.OO.O.O.OO%%@%%%%%%%%%%%",
"%%%%.O.OO.O.O.O.O.O.O.O.O..O.O.O.OOOO%%%%%%%%%%%%%",
"%%%%.O.O.OO.OO.O.O.O.O.O.O.O.O.O.O.OO.O%%%%%%%%%%%",
"%%%%OOO.O..O.OO.O.O.O.O.O.O.O.O.O.O..O.OO%%%%%%%%%",
"%%%%%O.O..O.O.O..O.O.O.O.O.O.O.O.O.OO.O.O.@%%%%%%%",
"%%%%@O...O.O..O.O.O.O.O.O.O.O.O.O.O..O.OOOO@%%%%%%",
"%%%%%O.OO.O.O.O..O.O.O.O.O.O.O.O.O.O.O..OOO%%%%%%%",
"%%%%%%OO.O.O.O.OO.O.O.O.O.O.O.O..O.OO.O..OO%%%%%%%",
"%%%%>%%OO.O.O.O..O.O.O.O.O.O.O.O.OO..O.OO.%%%>%%%%",
"%%%%%%>%%O.O.O.OO.O.O.O.O.O.O.O.O..OO.O.O%%%%%%%%%",
"%%%%%%%%%OOO.O...O.OO.OO.O.OO.O.O.O.O.OOO@%%%%%%%%",
"%%%%%%%%%@OOO..OO.O..O.OO...OO.O.O.O.O.O%%%%%%%%%%",
"%%%%%%%%%%%O..O..O.OO.O..O.O.O..O.O.O.O%%%%%%%%%%%",
"%%%%%%%%%%%%@O.OO.O..O.OO.O.O.O..O.O.O%%%%%%%%%%%%",
"%%%%%%%%%%%%%%OOOO.OO.O..O.O.O.OO.O.>%%%%%%%%%%%%%",
"%%%%%%%%%%%%%%%%OOO..O.OO...O.O..O@@%%%%%%%%%%%%%%",
"%%%%%%%%%%%%%%%%%%%O.OO.O.O.O.OO%%%%%%%%%%%%%%%%%%",
"%%%%%%%%%%%%%%%%%@%%@..O.O.OOO%%@@%%%%%%%%%%%%%%%%",
"%%%%%%%%%%%%%%%%%%%%%%%%%%%%%%%%%%%%%%%%%%%%%%%%%%",
"%%%%%%%%%%%%%%%%%%%%%%%%%%%%%%%%%%%%%%%%%%%%%%%%%%"
};
