/* XPM */
static char *xpm_[] = {
/* columns rows colors chars-per-pixel */
"50 50 2 1 ",
"% c #01B400",
"  c #FFFF00",
/* pixels */
"%%%%%%%%%%%%%%%%%%%%%%%%%%%%%%%%%%%%%%%%%%%%%%%%%%",
"%%%%%%%%%%%%%%%%%%%%%%%%%%%%%%%%%%%%%%%%%%%%%%%%%%",
"%%%%%%%%%%%%%%%%%%%%%%%%%%%%%%%%%%%%%%%%%%%%%%%%%%",
"%%%%%%%%%%%%%%%%%%%%%%%%%%%%%%%%%%%%%%%%%%%%%%%%%%",
"%%%%%%%%%%%%%%%%%%%%%%%%%%%%%%%%%%%%%%%%%%%%%%%%%%",
"%%%%%%%%%%%%%%%%%%%%%%%%%%%%%%%%%%%%%%%%%%%%%%%%%%",
"%%%%%%%%%%%%%%%%%%%%%%%%%%%%%%%%%%%%%%%%%%%%%%%%%%",
"%%%%%%%%%%%%%%%%%%%%%%%%%%%%%%%%%%%%%%%%%%%%%%%%%%",
"%%%%%%%%%%%%%%%%%%%%%%%%%%%%%%%%%%%%%%%%%%%%%%%%%%",
"%%%%%%%%%%%%%%%%%%%%%%%%%%%%%%%%%%%%%%%%%%%%%%%%%%",
"%%%    %%%%%%%%%%%%%%    %%%%%%%%%%%%%%%     %%%%%",
"%%%    %%%%%%%%%%%%%%    %%%%%%%%%%%%%%%     %%%%%",
"%%%    %%%%%%%%%%%%%%    %%%%%%%%%%%%%%%     %%%%%",
"%%%    %%%%%%%%%%%%%%    %%%%%%%%%%%%%%%     %%%%%",
"%%%    %%%%%%%%%%%%%%    %%%%%%%%%%%%%%%     %%%%%",
"%%%    %%%%%%%%%%%%%%    %%%%%%%%%%%%%%%     %%%%%",
"%%%    %%%%%%%%%%%%%%    %%%%%%%%%%%%%%%     %%%%%",
"%%%    %%%%%%%%%%%%%%    %%%%%%%%%%%%%%%     %%%%%",
"%%%    %%%%%%%%%%%%%%    %%%%%%%%%%%%%%%     %%%%%",
"%%%    %%%%%%%%%%%%%%    %%%%%%%%%%%%%%%     %%%%%",
"%%%    %%%%%%%%%%%%%%    %%%%%%%%%%%%%%%     %%%%%",
"%%%    %%%%%%%%%%%%%%    %%%%%%%%%%%%%%%     %%%%%",
"%%%    %%%%%%%%%%%%%%    %%%%%%%%%%%%%%%     %%%%%",
"%%%    %%%%%%%%%%%%%%    %%%%%%%%%%%%%%%     %%%%%",
"%%%    %%%%%%%%%%%%%%    %%%%%%%%%%%%%%%     %%%%%",
"%%%    %%%%%%%%%%%%%%    %%%%%%%%%%%%%%%     %%%%%",
"%%%    %%%%%%%%%%%%%%    %%%%%%%%%%%%%%%     %%%%%",
"%%%    %%%%%%%%%%%%%%    %%%%%%%%%%%%%%%     %%%%%",
"%%%    %%%%%%%%%%%%%%    %%%%%%%%%%%%%%%     %%%%%",
"%%%    %%%%%%%%%%%%%%    %%%%%%%%%%%%%%%     %%%%%",
"%%%    %%%%%%%%%%%%%%    %%%%%%%%%%%%%%%     %%%%%",
"%%%%%%%%             %%%%%              %%%%%%%%%%",
"%%%%%%%%             %%%%%              %%%%%%%%%%",
"%%%%%%%%             %%%%%              %%%%%%%%%%",
"%%%%%%%%%%%%%%%%%%%%%%%%%%%%%%%%%%%%%%%%%%%%%%%%%%",
"%%%%%%%%%%%%%%%%%%%%%%%%%%%%%%%%%%%%%%%%%%%%%%%%%%",
"%%%%%%%%%%%%%%%%%%%%%%%%%%%%%%%%%%%%%%%%%%%%%%%%%%",
"%%%%%%%%%%%%%%%%%%%%%%%%%%%%%%%%%%%%%%%%%%%%%%%%%%",
"%%%%%%%%%%%%%%%%%%%%%%%%%%%%%%%%%%%%%%%%%%%%%%%%%%",
"%%%%%%%%%%%%%%%%%%%%%%%%%%%%%%%%%%%%%%%%%%%%%%%%%%",
"%%%%%%%%%%%%%%%%%%%%%%%%%%%%%%%%%%%%%%%%%%%%%%%%%%",
"%%%%%%%%%%%%%%%%%%%%%%%%%%%%%%%%%%%%%%%%%%%%%%%%%%",
"%%%%%%%%%%%%%%%%%%%%%%%%%%%%%%%%%%%%%%%%%%%%%%%%%%",
"%%%%%%%%%%%%%%%%%%%%%%%%%%%%%%%%%%%%%%%%%%%%%%%%%%",
"%%%%%%%%%%%%%%%%%%%%%%%%%%%%%%%%%%%%%%%%%%%%%%%%%%",
"%%%%%%%%%%%%%%%%%%%%%%%%%%%%%%%%%%%%%%%%%%%%%%%%%%",
"%%%%%%%%%%%%%%%%%%%%%%%%%%%%%%%%%%%%%%%%%%%%%%%%%%",
"%%%%%%%%%%%%%%%%%%%%%%%%%%%%%%%%%%%%%%%%%%%%%%%%%%",
"%%%%%%%%%%%%%%%%%%%%%%%%%%%%%%%%%%%%%%%%%%%%%%%%%%",
"%%%%%%%%%%%%%%%%%%%%%%%%%%%%%%%%%%%%%%%%%%%%%%%%%%"
};
