/* XPM */
static char *xpm_[] = {
/* columns rows colors chars-per-pixel */
"50 50 30 1 ",
"  c black",
". c #010000",
"X c #000100",
"o c #010100",
"O c #010101",
"+ c #000002",
"@ c #010103",
"# c #CE3E00",
"$ c #CF3E00",
"% c #CF3F00",
"& c #CE3E01",
"* c #CF3F02",
"= c #D03F00",
"- c #CE4000",
"; c #CF4000",
": c #CF4101",
"> c #CE4002",
", c #D04001",
"< c #D14001",
"1 c #E3A75E",
"2 c #E3A75F",
"3 c #E3A85C",
"4 c #E3A95F",
"5 c #E4A95D",
"6 c #E6A85D",
"7 c #E4A85F",
"8 c #E6A85F",
"9 c #E3A960",
"0 c #E4A860",
"q c #E5A960",
/* pixels */
"88428842428842428844248842248824428842428284428484",
"48844248824248844828484288484428824248842484824282",
"22449840844828484824844844224848844828488484849848",
"848#=#-#,##,#,####=###   884####,##,#,###-##,#,   ",
"280=##,#,#,#,#,#,##,#,   448-#-,,#,#,#,#-##,#,#   ",
"848-,,-,#,#,#,#,,,===-   822##,##,#,#,#,==-,,#,   ",
"448##=#=,#,#,#,##,#,#,   084,#-#,#,#,#,###-#-=#   ",
"820-,-==#,#,#,#=,#,#,#   848#,#,#,#,#,#,,,,##,#   ",
"408##-=#,##,#,=-,#,-,#   000,#,,--#-,,=#--,,#=,   ",
"        @                                         ",
"                                           @      ",
"                                                  ",
"004084   04824288808484443840440284   820008408884",
"488084   42888484248482828280848482   840084824282",
"484028   82228484884804848844882848   284842848048",
"#=####   044#-#-##-##,##-##,##,#---   482,##---###",
"=-,##,   882-###,#,#,#,#,#,#,#,#=#,   408=#,,#,=#,",
"#,#,,#   244,,#,#,#,#,#,#,#,#,#,-,#   284#,##,,-,#",
",####,   828#,=#,#,#,#,#,#,#,#,#,#,   848,#,=##,#,",
"#,,#,#   448,##,#,#,#,#,#,#,#,#,#=#   844#,##,,#,#",
",#,#=#   428#,-#,#,#,#,#,#,#,#,#-,#   482#,##,,,#,",
"#,#,=, @ 824,##,#,#,#,#,#,#,#,#,,-,   808,-,,##=,#",
"                                                  ",
"                                                  ",
"                                                  ",
"4884888048844824848888   8428448488448248480098   ",
"8842284442842288424244   4884288428422884280848   ",
"4048442882488442488248   8448842824884424844848   ",
"848-#=#,#,#,#,#,##,#-,   882##-=#,#,#,#,#-#,,#,   ",
"408##,,#,#,#,#,##-#,,#   244#-,#,#,#,#,##=#=#,#   ",
"848-#,-=#,#,#,#,,#,#,#   882,##,#,#,#,#,#,,-##=   ",
"288#,#=-,#,#,#,####=#-   848#,#=,#,#,#,#,#=#,#=   ",
"448##,##,#-=##,#,#,#,#   008==#,##,##,##,#=#,#,   ",
"828#=-,,,#-##,#,#,#,#,   804-=,##,#,,-#,,,-,-=#   ",
"484#-,,,#,#,#,,#,#-,,#   884,-,#,,,#,#--#,-,=-,   ",
"                                                  ",
"                                                  ",
"                                                  ",
"824484   08440082848848408488484882   040080480842",
"488280   04488484822482808404884448   880048028482",
"484880   88228488488428448484848480   828484284284",
"#####,   942#-###,#-,#,####,###,,#,   448-,##,,#,#",
"=##,-=   888,#,#,#,##,#,,#,#,#,####   484,#,=#=##,",
"#,,#,#   044#,#,#,#,,#,##,#,#,#,=,,   484#,##,#,,#",
",,#,#,   242#,#,,#,#,#,#,#,#,#,#=-,   008#,#,,#,#,",
",#,-,#   884,##-#,#,#,#,#,#,#,#,#,#   844,#,##,#,#",
"#=#,#,   808=-#,,##,,#,##,,#,##,,#,   848#,#-##,-=",
"                                                  ",
"                                                  ",
"                                                  "
};
